<?xml version="1.0" encoding="utf-8"?>
<svg enable-background="new 0 0 233 233" version="1.1" viewBox="0 0 233 233" xmlns="http://www.w3.org/2000/svg">
    <path d="m233 138v1c-1.59 0.45-3.16 1.04-4.78 1.32-5.33 0.9-8.85 3.18-10.38 9.04-1.54 5.89-4.81 11.3-6.83 17.1-0.77 2.21-0.7 5.06-0.02 7.32 0.81 2.69 2.7 5.05 4.52 8.24-1.93-0.29-2.91-0.35-3.85-0.6-5.99-1.57-11.05-0.96-14.54 5.07-1.3 2.24-3.47 4.04-5.47 5.79-6.56 5.71-14.05 10.95-8.44 22.07-2.44-0.8-3.91-1.46-5.2-2.36-4.16-2.93-8.13-3.81-12.81-0.63-3.11 2.12-6.76 3.95-10.42 4.68-8.64 1.71-13.48 6.37-14.08 15.25-0.01 0.17-0.5 0.31-1.26 0.76-0.98-1.39-2.03-2.82-3.02-4.29-2.59-3.84-5.57-5.79-10.8-5.09-6.2 0.84-12.63-0.1-18.93 0.24-2.35 0.12-5.13 1.12-6.82 2.68-2.11 1.95-3.29 4.9-4.87 7.42h-1c-0.45-1.59-1.04-3.16-1.32-4.78-0.9-5.34-3.18-8.85-9.04-10.38-5.89-1.53-11.3-4.81-17.1-6.83-2.21-0.77-5.06-0.7-7.32-0.02-2.69 0.81-5.04 2.7-8.24 4.52 0.29-1.94 0.35-2.92 0.6-3.85 1.57-5.99 0.96-11.05-5.06-14.54-2.24-1.3-4.04-3.47-5.79-5.47-5.72-6.55-10.94-14.07-22.05-8.39 0.73-2.32 1.24-3.7 2.07-4.83 3.3-4.44 4.06-8.72 0.67-13.67-2.03-2.97-3.78-6.47-4.46-9.97-1.68-8.65-6.36-13.49-15.24-14.09-0.17-0.01-0.32-0.5-0.77-1.26 1.41-0.99 2.83-2.03 4.29-3.02 3.84-2.59 5.8-5.56 5.09-10.8-0.84-6.2 0.1-12.63-0.24-18.93-0.12-2.35-1.12-5.13-2.68-6.82-1.94-2.11-4.89-3.3-7.41-4.88v-1c1.59-0.45 3.16-1.04 4.78-1.32 5.33-0.9 8.85-3.18 10.38-9.04 1.54-5.89 4.81-11.3 6.83-17.1 0.77-2.21 0.7-5.06 0.02-7.32-0.81-2.69-2.7-5.04-4.52-8.24 1.94 0.29 2.92 0.35 3.85 0.6 5.99 1.57 11.05 0.97 14.54-5.07 1.3-2.24 3.47-4.04 5.47-5.79 6.56-5.71 14.05-10.95 8.39-22.05 2.32 0.73 3.7 1.23 4.83 2.07 4.44 3.3 8.72 4.05 13.67 0.67 2.97-2.03 6.47-3.78 9.97-4.46 8.66-1.68 13.48-6.36 14.09-15.24 0.01-0.17 0.5-0.32 1.26-0.77 0.99 1.41 2.03 2.83 3.02 4.29 2.59 3.84 5.56 5.8 10.8 5.09 6.21-0.84 12.63 0.09 18.93-0.24 2.35-0.12 5.13-1.12 6.82-2.68 2.11-1.95 3.29-4.9 4.87-7.42h1c0.45 1.59 1.04 3.16 1.32 4.78 0.9 5.34 3.18 8.85 9.04 10.38 5.89 1.54 11.3 4.82 17.1 6.83 2.21 0.77 5.06 0.7 7.32 0.02 2.69-0.81 5.05-2.7 8.2-4.5-0.29 2.07-0.32 3.23-0.63 4.32-1.67 5.94-0.56 10.68 5.14 14.04 2.09 1.24 3.78 3.26 5.44 5.12 5.84 6.56 11 14.55 22.41 8.75-0.74 2.33-1.25 3.71-2.09 4.83-3.31 4.44-4.05 8.73-0.67 13.67 2.03 2.98 3.78 6.47 4.46 9.97 1.68 8.66 6.36 13.48 15.24 14.09 0.17 0.01 0.32 0.5 0.76 1.26-1.41 0.99-2.83 2.03-4.29 3.02-3.84 2.59-5.8 5.56-5.09 10.8 0.84 6.2-0.1 12.63 0.24 18.93 0.12 2.35 1.12 5.13 2.68 6.82 1.95 2.12 4.9 3.31 7.42 4.89zm-212.89-21.5c-0.05 52.81 43.58 96.38 96.51 96.39 52.54 0.01 96.1-43.5 96.27-96.14 0.16-52.84-43.33-96.5-96.26-96.64-52.73-0.14-96.47 43.55-96.52 96.39z"/>
    <path d="m138 0c-1.58 2.52-2.77 5.47-4.87 7.42-1.69 1.56-4.47 2.55-6.82 2.68-6.3 0.33-12.73-0.6-18.93 0.24-5.23 0.71-8.2-1.25-10.8-5.09-0.98-1.46-2.03-2.88-3.02-4.29-0.76 0.45-1.25 0.59-1.26 0.77-0.6 8.88-5.43 13.56-14.09 15.24-3.5 0.68-7 2.43-9.97 4.46-4.95 3.38-9.23 2.63-13.67-0.67-1.13-0.84-2.51-1.34-4.83-2.07 5.66 11.1-1.84 16.34-8.39 22.05-2 1.74-4.18 3.55-5.47 5.79-3.49 6.04-8.55 6.64-14.54 5.07-0.93-0.24-1.91-0.3-3.85-0.6 1.82 3.19 3.71 5.55 4.52 8.24 0.68 2.26 0.75 5.11-0.02 7.32-2.02 5.8-5.29 11.21-6.83 17.1-1.53 5.86-5.04 8.14-10.38 9.04-1.62 0.26-3.19 0.85-4.78 1.3v-94h138z" fill="#fff" fill-opacity="0"/>
    <path d="m233 138c-2.52-1.58-5.47-2.77-7.42-4.87-1.56-1.69-2.55-4.47-2.68-6.82-0.33-6.3 0.6-12.73-0.24-18.93-0.71-5.23 1.24-8.2 5.09-10.8 1.46-0.98 2.88-2.03 4.29-3.02-0.45-0.76-0.59-1.25-0.76-1.26-8.88-0.6-13.56-5.43-15.24-14.09-0.68-3.5-2.43-6.99-4.46-9.97-3.37-4.95-2.63-9.23 0.67-13.67 0.84-1.13 1.35-2.51 2.09-4.83-11.41 5.8-16.57-2.19-22.41-8.75-1.66-1.86-3.34-3.89-5.44-5.12-5.7-3.36-6.81-8.11-5.14-14.04 0.31-1.09 0.34-2.25 0.63-4.32-3.16 1.8-5.52 3.68-8.2 4.5-2.26 0.68-5.11 0.75-7.32-0.02-5.8-2.02-11.21-5.29-17.1-6.83-5.86-1.53-8.14-5.05-9.04-10.38-0.28-1.62-0.87-3.19-1.32-4.78h94v138z" fill="#fff" fill-opacity="0"/>
    <path d="m95 233c1.58-2.52 2.77-5.47 4.87-7.42 1.69-1.56 4.47-2.56 6.82-2.68 6.3-0.33 12.73 0.6 18.93-0.24 5.23-0.71 8.2 1.24 10.8 5.09 0.99 1.47 2.03 2.89 3.02 4.29 0.76-0.45 1.25-0.59 1.26-0.76 0.6-8.88 5.44-13.53 14.08-15.25 3.65-0.72 7.3-2.56 10.42-4.68 4.67-3.18 8.65-2.3 12.81 0.63 1.29 0.91 2.76 1.56 5.2 2.36-5.6-11.12 1.89-16.36 8.44-22.07 2-1.74 4.18-3.55 5.47-5.79 3.49-6.03 8.55-6.64 14.54-5.07 0.93 0.24 1.91 0.3 3.85 0.6-1.81-3.19-3.7-5.55-4.52-8.24-0.68-2.26-0.75-5.11 0.02-7.32 2.02-5.8 5.29-11.21 6.83-17.1 1.53-5.86 5.04-8.14 10.38-9.04 1.62-0.27 3.19-0.87 4.78-1.32v94c-46 0.01-92 0.01-138 0.01z" fill="#fff" fill-opacity="0"/>
    <path d="m0 95c2.52 1.58 5.47 2.77 7.42 4.87 1.56 1.69 2.55 4.47 2.68 6.82 0.33 6.3-0.6 12.73 0.24 18.93 0.71 5.23-1.25 8.2-5.09 10.8-1.46 0.98-2.88 2.03-4.29 3.02 0.45 0.76 0.59 1.25 0.77 1.26 8.88 0.6 13.56 5.44 15.24 14.09 0.68 3.5 2.42 7 4.46 9.97 3.38 4.95 2.63 9.23-0.67 13.67-0.84 1.13-1.34 2.51-2.07 4.83 11.11-5.68 16.34 1.84 22.05 8.39 1.74 2 3.55 4.17 5.79 5.47 6.03 3.49 6.63 8.55 5.06 14.54-0.24 0.93-0.3 1.91-0.6 3.85 3.19-1.82 5.55-3.71 8.24-4.52 2.26-0.68 5.11-0.75 7.32 0.02 5.8 2.02 11.21 5.3 17.1 6.83 5.86 1.53 8.14 5.04 9.04 10.38 0.27 1.62 0.87 3.19 1.32 4.78h-94c-0.01-46-0.01-92-0.01-138z" fill="#fff" fill-opacity="0"/>
    <path d="m20.11 116.5c0.05-52.84 43.79-96.53 96.52-96.39 52.93 0.14 96.42 43.81 96.26 96.64-0.16 52.64-43.73 96.15-96.27 96.14-52.93-0.01-96.56-43.58-96.51-96.39zm151.88-44.89h-114.38c2.61 6.67 3.99 12.79 7.16 17.78 7.18 11.33 18.84 15.74 31.54 16.5 12.77 0.76 25.69 0.89 38.42-0.12 7.06-0.56 14.34-3.15 20.73-6.38 10.81-5.45 15.71-15.23 16.53-27.78zm-70.79 78.88c-12.33 5.11-13.2 5.85-14.65 12.04-6.72 3.51-16.23-1.96-21.6 7.65h100.46c-0.93-5.66-5.14-5.53-8.98-5.95-4.08-0.44-8.17-0.85-11.89-1.23-1.59-8.63-8.74-9.78-14.38-12.39 0-2.26 0.03-4.24-0.01-6.21-0.06-2.82 0.96-6.6-0.47-8.28-4.18-4.92-4.28-9.87-2.08-15.59h-23.21c0 3.64 0.45 6.71-0.1 9.59-0.91 4.74-4.99 8.66-3.51 14.11 0.51 1.88 0.29 3.95 0.42 6.26zm-43.21-83.51c-0.1 0.68-0.21 1.36-0.31 2.04 1.27 0.31 2.55 0.89 3.82 0.89 36 0.05 71.99 0.05 107.99-0.02 1.29 0 2.58-0.85 3.87-1.3-0.11-0.54-0.21-1.07-0.32-1.61h-115.05zm43.28 40.69c-0.73 1.3-1.1 2.7-2.01 3.46-3.14 2.65-1.77 4.8 0.83 6.28 1.78 1.01 4.09 1.46 6.18 1.52 6.16 0.19 12.33 0.14 18.49 0.02 1.79-0.04 3.69-0.35 5.32-1.03 3.9-1.64 4.14-3.83 1.23-6.98-0.72-0.78-0.89-2.07-1.37-3.28-9.6 0.01-19.24 0.01-28.67 0.01z" fill="#fff" fill-opacity="0"/>
    <path d="m171.99 71.61c-0.82 12.55-5.73 22.32-16.53 27.78-6.39 3.23-13.67 5.82-20.73 6.38-12.74 1.01-25.65 0.88-38.42 0.12-12.7-0.76-24.36-5.17-31.54-16.5-3.16-4.99-4.55-11.11-7.16-17.78h114.38z"/>
    <path d="m101.2 150.49c-0.13-2.32 0.09-4.38-0.42-6.25-1.48-5.46 2.6-9.38 3.51-14.11 0.55-2.88 0.1-5.95 0.1-9.59h23.21c-2.2 5.72-2.1 10.67 2.08 15.59 1.43 1.68 0.41 5.46 0.47 8.28 0.04 1.98 0.01 3.95 0.01 6.21 5.64 2.61 12.79 3.75 14.38 12.39 3.72 0.38 7.81 0.79 11.89 1.23 3.84 0.42 8.05 0.29 8.98 5.95h-100.46c5.38-9.61 14.88-4.14 21.6-7.65 1.45-6.2 2.32-6.93 14.65-12.05zm22.1-4.8l0.96-1.68c-2.96-2.1-5.92-5.83-8.89-5.84-2.86 0-5.72 3.85-8.58 6.01 0.26 0.5 0.51 1.01 0.77 1.51h15.74zm12.26 16.29c-3.31-1.52-5.61-2.57-8.09-3.71-1.01 5.09 0.01 5.57 8.09 3.71zm-39.09-0.44c8.12 1.92 8.46 1.73 6.72-3.19-2.27 1.08-4.49 2.13-6.72 3.19z"/>
    <path d="m57.99 66.98h115.06c0.11 0.54 0.21 1.07 0.32 1.61-1.29 0.45-2.58 1.3-3.87 1.3-36 0.07-71.99 0.07-107.99 0.02-1.27 0-2.55-0.58-3.82-0.89 0.09-0.67 0.2-1.35 0.3-2.04z"/>
    <path d="m101.27 107.67h28.66c0.48 1.2 0.65 2.49 1.37 3.28 2.91 3.14 2.67 5.33-1.23 6.98-1.63 0.69-3.53 1-5.32 1.03-6.16 0.12-12.33 0.17-18.49-0.02-2.09-0.07-4.39-0.51-6.18-1.52-2.6-1.48-3.97-3.64-0.83-6.28 0.92-0.78 1.29-2.17 2.02-3.47z"/>
    <path d="m123.3 145.69h-15.74c-0.26-0.5-0.51-1.01-0.77-1.51 2.86-2.16 5.72-6.01 8.58-6.01 2.96 0 5.93 3.74 8.89 5.84-0.32 0.55-0.64 1.12-0.96 1.68z" fill="#fff" fill-opacity="0"/>
    <path d="m135.56 161.98c-8.08 1.87-9.1 1.39-8.09-3.71 2.48 1.13 4.79 2.19 8.09 3.71z" fill="#fff" fill-opacity="0"/>
    <path d="m96.47 161.54c2.22-1.05 4.44-2.11 6.72-3.19 1.75 4.91 1.41 5.11-6.72 3.19z" fill="#fff" fill-opacity="0"/>
</svg>
